<svg width="752" height="778" viewBox="0 0 752 778" fill="none" xmlns="http://www.w3.org/2000/svg">
<path d="M220.174 246.035C100.518 315.868 93.3603 551.649 263.556 547.136C339.66 545.113 361.895 465.306 430.577 437.298C495.057 410.986 550.653 463.75 615.741 404C692.436 333.669 703.452 161.653 589.46 150.154C539.823 145.144 520.685 194.702 477.319 205.672C389.405 227.923 309.084 194.173 220.174 246.035Z" fill="#AD4358"/>
<path opacity="0.9" d="M220.174 246.035C100.518 315.868 93.3603 551.649 263.556 547.136C339.66 545.113 361.895 465.306 430.577 437.298C495.057 410.986 550.653 463.75 615.741 404C692.436 333.669 703.452 161.653 589.46 150.154C539.823 145.144 520.685 194.702 477.319 205.672C389.405 227.923 309.084 194.173 220.174 246.035Z" fill="#4A4276"/>
<path d="M389 665.283C555.621 665.283 690.693 657.397 690.693 647.669C690.693 637.942 555.621 630.056 389 630.056C222.38 630.056 87.3076 637.942 87.3076 647.669C87.3076 657.397 222.38 665.283 389 665.283Z" fill="#4A4276"/>
<path d="M76.0264 234.271L430.748 285.339L478.346 333.373L76.0264 234.271Z" fill="#AD4358"/>
<path opacity="0.6" d="M76.0264 234.271L430.748 285.339L478.346 333.373L76.0264 234.271Z" fill="white"/>
<path d="M76.0264 234.271L430.748 285.339L414.285 354.799L76.0264 234.271Z" fill="#AD4358"/>
<path opacity="0.2" d="M76.0264 234.271L430.748 285.339L414.285 354.799L76.0264 234.271Z" fill="black"/>
<path d="M407.003 153.857L427.589 250.329C428.124 252.848 427.638 255.477 426.238 257.639C424.838 259.8 422.638 261.318 420.12 261.859L236.387 301.07C233.869 301.602 231.242 301.114 229.081 299.715C226.921 298.315 225.402 296.117 224.857 293.602L204.256 197.13C203.725 194.609 204.215 191.98 205.617 189.819C207.02 187.658 209.222 186.141 211.74 185.6L395.473 146.388C397.994 145.858 400.622 146.347 402.783 147.75C404.944 149.153 406.461 151.354 407.003 153.873V153.857Z" fill="#AD4358"/>
<path opacity="0.4" d="M407.003 153.857L427.589 250.329C428.124 252.848 427.638 255.477 426.238 257.639C424.838 259.8 422.638 261.318 420.12 261.859L236.387 301.07C233.869 301.602 231.242 301.114 229.081 299.715C226.921 298.315 225.402 296.117 224.857 293.602L204.256 197.13C203.725 194.609 204.215 191.98 205.617 189.819C207.02 187.658 209.222 186.141 211.74 185.6L395.473 146.388C397.994 145.858 400.622 146.347 402.783 147.75C404.944 149.153 406.461 151.354 407.003 153.873V153.857Z" fill="black"/>
<path d="M402.475 147.54L341.091 222.897C335.398 229.884 327.491 234.718 318.677 236.599C309.863 238.481 300.671 237.297 292.622 233.244L205.812 189.521C207.217 187.503 209.337 186.096 211.741 185.584L395.473 146.373C397.871 145.863 400.373 146.28 402.475 147.54Z" fill="#AD4358"/>
<path d="M76.0264 234.271L368.601 303.809L414.285 354.799L76.0264 234.271Z" fill="#AD4358"/>
<path opacity="0.6" d="M76.0264 234.271L368.601 303.809L414.285 354.799L76.0264 234.271Z" fill="white"/>
<path d="M182.751 301.296L181.965 302.639L214.523 321.71L215.31 320.368L182.751 301.296Z" fill="#AD4358"/>
<path d="M229.684 328.776L228.897 330.118L240.605 336.976L241.392 335.634L229.684 328.776Z" fill="#AD4358"/>
<path d="M76.0264 234.271L368.601 303.809L311.729 372.351L76.0264 234.271Z" fill="#AD4358"/>
<path d="M467.361 397.185C466.966 397.186 466.576 397.112 466.209 396.967L418.564 378.108C417.802 377.801 417.192 377.205 416.868 376.45C416.544 375.695 416.531 374.842 416.833 374.078C417.135 373.313 417.727 372.7 418.48 372.37C419.233 372.041 420.085 372.023 420.852 372.32L468.512 391.178C469.186 391.445 469.746 391.938 470.095 392.574C470.445 393.209 470.561 393.946 470.425 394.659C470.288 395.371 469.907 396.013 469.348 396.474C468.788 396.935 468.086 397.186 467.361 397.185Z" fill="#AD4358"/>
<path opacity="0.3" d="M467.361 397.185C466.966 397.186 466.576 397.112 466.209 396.967L418.564 378.108C417.802 377.801 417.192 377.205 416.868 376.45C416.544 375.695 416.531 374.842 416.833 374.078C417.135 373.313 417.727 372.7 418.48 372.37C419.233 372.041 420.085 372.023 420.852 372.32L468.512 391.178C469.186 391.445 469.746 391.938 470.095 392.574C470.445 393.209 470.561 393.946 470.425 394.659C470.288 395.371 469.907 396.013 469.348 396.474C468.788 396.935 468.086 397.186 467.361 397.185Z" fill="black"/>
<path d="M464.544 369.861C464.153 369.859 463.768 369.779 463.408 369.628L437.812 359.436C437.429 359.288 437.079 359.065 436.783 358.781C436.487 358.497 436.25 358.158 436.085 357.782C435.921 357.406 435.832 357.001 435.825 356.59C435.817 356.18 435.891 355.772 436.042 355.391C436.193 355.009 436.418 354.661 436.704 354.366C436.989 354.072 437.331 353.837 437.708 353.675C438.085 353.513 438.49 353.427 438.901 353.422C439.311 353.418 439.718 353.494 440.099 353.648L465.695 363.793C466.462 364.095 467.078 364.689 467.408 365.444C467.738 366.2 467.754 367.055 467.454 367.823C467.234 368.419 466.838 368.934 466.318 369.298C465.798 369.662 465.179 369.859 464.544 369.861Z" fill="#AD4358"/>
<path opacity="0.5" d="M464.544 369.861C464.153 369.859 463.768 369.779 463.408 369.628L437.812 359.436C437.429 359.288 437.079 359.065 436.783 358.781C436.487 358.497 436.25 358.158 436.085 357.782C435.921 357.406 435.832 357.001 435.825 356.59C435.817 356.18 435.891 355.772 436.042 355.391C436.193 355.009 436.418 354.661 436.704 354.366C436.989 354.072 437.331 353.837 437.708 353.675C438.085 353.513 438.49 353.427 438.901 353.422C439.311 353.418 439.718 353.494 440.099 353.648L465.695 363.793C466.462 364.095 467.078 364.689 467.408 365.444C467.738 366.2 467.754 367.055 467.454 367.823C467.234 368.419 466.838 368.934 466.318 369.298C465.798 369.662 465.179 369.859 464.544 369.861Z" fill="white"/>
<path d="M411.033 396.78C410.644 396.776 410.259 396.702 409.897 396.562L363.419 378.108C363.036 377.96 362.687 377.737 362.391 377.453C362.094 377.169 361.857 376.83 361.693 376.454C361.528 376.078 361.44 375.673 361.432 375.262C361.425 374.852 361.499 374.444 361.649 374.063C361.8 373.681 362.025 373.333 362.311 373.038C362.597 372.744 362.938 372.509 363.315 372.347C363.692 372.185 364.098 372.099 364.508 372.095C364.919 372.09 365.326 372.166 365.706 372.32L412.184 390.712C412.858 390.978 413.418 391.472 413.768 392.107C414.117 392.742 414.233 393.48 414.097 394.192C413.96 394.904 413.579 395.546 413.02 396.007C412.461 396.468 411.758 396.72 411.033 396.718V396.78Z" fill="#AD4358"/>
<path opacity="0.3" d="M411.033 396.78C410.644 396.776 410.259 396.702 409.897 396.562L363.419 378.108C363.036 377.96 362.687 377.737 362.391 377.453C362.094 377.169 361.857 376.83 361.693 376.454C361.528 376.078 361.44 375.673 361.432 375.262C361.425 374.852 361.499 374.444 361.649 374.063C361.8 373.681 362.025 373.333 362.311 373.038C362.597 372.744 362.938 372.509 363.315 372.347C363.692 372.185 364.098 372.099 364.508 372.095C364.919 372.09 365.326 372.166 365.706 372.32L412.184 390.712C412.858 390.978 413.418 391.472 413.768 392.107C414.117 392.742 414.233 393.48 414.097 394.192C413.96 394.904 413.579 395.546 413.02 396.007C412.461 396.468 411.758 396.72 411.033 396.718V396.78Z" fill="black"/>
<path d="M579.299 256.46C583.422 264.504 587.203 272.565 590.797 280.811C594.392 289.058 597.737 297.414 600.662 306.174L601.72 309.488C601.907 310.08 602.172 311.044 602.327 311.729C602.483 312.414 602.623 313.192 602.701 313.845C603.057 316.356 603.239 318.887 603.245 321.423C603.269 326.099 603.051 330.773 602.592 335.427C601.723 344.436 600.31 353.383 598.36 362.221L589.817 361.272C589.708 352.512 589.63 343.658 589.319 335.022C589.179 330.728 588.93 326.418 588.494 322.372C588.297 320.472 587.985 318.586 587.561 316.724C587.483 316.288 587.359 315.961 587.265 315.603C587.172 315.246 587.079 315.121 586.923 314.654L585.74 311.713C582.488 303.84 578.832 295.905 575.097 288L563.801 264.287L579.299 256.46Z" fill="#E4897B"/>
<path d="M589.941 358.534L585.958 365.987L598.686 369.534C598.686 369.534 601.113 363.544 598.219 358.814L589.941 358.534Z" fill="#E4897B"/>
<path d="M581.088 376.723L592.789 377.657L598.686 369.534L585.958 365.987L581.088 376.723Z" fill="#E4897B"/>
<path d="M525.725 202.685C525.554 203.603 524.916 204.241 524.325 204.116C523.734 203.992 523.407 203.167 523.594 202.264C523.78 201.362 524.403 200.708 524.994 200.833C525.585 200.957 525.928 201.782 525.725 202.685Z" fill="#263238"/>
<path d="M525.01 204.241C523.366 206.786 521.382 209.095 519.112 211.103C519.642 211.666 520.288 212.108 521.005 212.398C521.722 212.689 522.494 212.82 523.267 212.783L525.01 204.241Z" fill="#DE5753"/>
<path d="M530.052 198.343C529.905 198.34 529.765 198.278 529.663 198.172C529.216 197.661 528.655 197.262 528.025 197.008C527.395 196.754 526.714 196.652 526.037 196.71C525.908 196.711 525.783 196.666 525.684 196.584C525.585 196.501 525.518 196.387 525.496 196.26C525.473 196.133 525.497 196.002 525.562 195.89C525.627 195.779 525.729 195.694 525.851 195.651C526.716 195.542 527.595 195.648 528.409 195.96C529.224 196.272 529.948 196.781 530.519 197.441C530.618 197.543 530.674 197.68 530.674 197.822C530.674 197.965 530.618 198.101 530.519 198.203C530.456 198.26 530.382 198.302 530.301 198.327C530.22 198.351 530.135 198.357 530.052 198.343Z" fill="#263238"/>
<path d="M551.462 215.397C549.829 223.768 548.195 239.079 554.045 244.665C554.045 244.665 551.758 253.146 536.214 253.146C519.098 253.146 528.06 244.665 528.06 244.665C537.396 242.44 537.132 235.516 535.513 229.028L551.462 215.397Z" fill="#E4897B"/>
<path d="M556.394 249.94C557.623 245.848 558.977 241.164 556.176 239.686C553.064 238.13 536.151 236.419 530.316 239.453C524.481 242.487 526.146 250.812 526.146 250.812L556.394 249.94Z" fill="#263238"/>
<path d="M592.276 637.96C591.793 638.024 591.302 637.991 590.831 637.863C590.361 637.735 589.921 637.514 589.537 637.213C589.402 637.025 589.329 636.799 589.329 636.567C589.329 636.336 589.402 636.11 589.537 635.922C589.626 635.761 589.749 635.62 589.896 635.51C590.044 635.4 590.213 635.323 590.393 635.284C592.074 634.91 595.217 637.058 595.357 637.151C595.397 637.185 595.428 637.228 595.447 637.277C595.466 637.326 595.473 637.379 595.466 637.431C595.457 637.481 595.433 637.528 595.397 637.564C595.36 637.6 595.314 637.624 595.264 637.633C594.282 637.845 593.28 637.955 592.276 637.96ZM590.845 635.782H590.518C590.412 635.803 590.313 635.848 590.227 635.913C590.141 635.977 590.07 636.06 590.02 636.155C589.771 636.591 589.926 636.778 590.02 636.84C590.502 637.493 592.836 637.493 594.548 637.213C593.433 636.477 592.168 635.999 590.845 635.813V635.782Z" fill="#AD4358"/>
<path d="M595.201 637.68H595.076C593.894 637.026 591.606 634.568 591.84 633.261C591.88 633.059 591.988 632.877 592.147 632.747C592.306 632.616 592.506 632.545 592.711 632.545C592.916 632.523 593.124 632.542 593.321 632.601C593.519 632.659 593.703 632.757 593.863 632.887C595.185 633.977 595.419 637.275 595.419 637.415C595.425 637.465 595.417 637.515 595.394 637.559C595.372 637.603 595.337 637.64 595.294 637.664C595.265 637.676 595.233 637.682 595.201 637.68ZM592.898 633.012H592.836C592.478 633.012 592.447 633.23 592.431 633.292C592.291 634.054 593.754 635.937 594.921 636.824C594.842 635.524 594.376 634.278 593.583 633.245C593.478 633.163 593.358 633.103 593.23 633.069C593.101 633.034 592.967 633.025 592.836 633.043L592.898 633.012Z" fill="#AD4358"/>
<path d="M523.641 637.96C522.178 637.96 520.762 637.758 520.28 637.104C520.158 636.931 520.093 636.725 520.093 636.513C520.093 636.301 520.158 636.095 520.28 635.922C520.374 635.762 520.5 635.623 520.65 635.513C520.8 635.403 520.971 635.325 521.151 635.284C523.034 634.77 527.049 637.042 527.22 637.135C527.266 637.165 527.302 637.207 527.324 637.257C527.346 637.307 527.353 637.362 527.344 637.415C527.335 637.47 527.309 637.52 527.27 637.559C527.231 637.598 527.181 637.624 527.126 637.633C525.977 637.85 524.81 637.959 523.641 637.96ZM521.82 635.75C521.65 635.726 521.477 635.726 521.307 635.75C521.198 635.772 521.094 635.816 521.003 635.881C520.912 635.945 520.835 636.028 520.778 636.124C520.576 636.466 520.654 636.622 520.778 636.715C521.291 637.431 524.186 637.478 526.333 637.182C524.934 636.427 523.401 635.951 521.82 635.782V635.75Z" fill="#AD4358"/>
<path d="M527.095 637.68H526.987C525.602 637.073 522.879 634.568 523.081 633.308C523.081 632.996 523.345 632.623 524.092 632.545C524.37 632.503 524.654 632.523 524.923 632.604C525.192 632.684 525.44 632.824 525.648 633.012C527.111 634.195 527.407 637.275 527.422 637.415C527.428 637.463 527.421 637.511 527.402 637.555C527.383 637.599 527.352 637.637 527.313 637.664C527.28 637.682 527.244 637.693 527.206 637.696C527.168 637.698 527.131 637.693 527.095 637.68ZM524.31 633.012H524.139C523.657 633.012 523.626 633.261 523.61 633.323C523.486 634.101 525.353 636.046 526.722 636.886C526.588 635.579 526.043 634.348 525.166 633.37C524.944 633.178 524.665 633.063 524.372 633.043L524.31 633.012Z" fill="#AD4358"/>
<path d="M539.667 637.4H528.231L527.095 610.932H538.531L539.667 637.4Z" fill="#E4897B"/>
<path d="M608.302 637.4H596.866L591.124 610.932H602.545L608.302 637.4Z" fill="#E4897B"/>
<path d="M596.057 636.077H608.894C609.123 636.079 609.345 636.158 609.523 636.303C609.701 636.447 609.825 636.647 609.874 636.871L612.131 647.031C612.182 647.279 612.177 647.535 612.116 647.78C612.055 648.025 611.94 648.254 611.778 648.448C611.617 648.642 611.413 648.798 611.183 648.903C610.954 649.008 610.703 649.06 610.45 649.054C605.969 648.977 603.791 648.712 598.142 648.712C594.672 648.712 587.515 649.085 582.707 649.085C577.899 649.085 577.292 644.417 579.252 643.904C588.059 641.975 591.374 639.314 594.19 636.793C594.702 636.33 595.367 636.075 596.057 636.077Z" fill="#263238"/>
<path d="M528.309 636.077H540.757C540.986 636.079 541.207 636.158 541.386 636.303C541.564 636.447 541.688 636.647 541.737 636.871L543.993 647.031C544.047 647.277 544.045 647.531 543.987 647.775C543.929 648.019 543.816 648.247 543.657 648.442C543.499 648.636 543.298 648.792 543.071 648.898C542.843 649.005 542.595 649.058 542.344 649.054C537.847 648.977 531.343 648.712 525.679 648.712C519.066 648.712 513.34 649.085 505.575 649.085C500.907 649.085 499.585 644.417 501.545 643.904C510.492 641.943 517.79 641.741 525.523 636.98C526.347 636.42 527.313 636.107 528.309 636.077Z" fill="#263238"/>
<path d="M522.816 264.738C513.258 263.997 503.747 262.735 494.326 260.957C489.658 260.054 484.896 259.043 480.166 257.767C475.318 256.526 470.556 254.967 465.913 253.099C464.715 252.601 463.501 252.056 462.303 251.543C460.955 250.878 459.655 250.119 458.413 249.271C456.173 247.793 454.243 246.253 452.329 244.728C448.517 241.616 444.985 238.504 441.437 235.314C434.482 228.872 427.885 222.212 421.521 215.21L427.247 208.815L449.824 225.044C453.543 227.721 457.309 230.35 461.012 232.824C462.848 234.054 464.731 235.205 466.458 236.185C467.18 236.597 467.928 236.961 468.698 237.274C469.616 237.632 470.55 237.99 471.53 238.333C479.94 240.922 488.54 242.847 497.251 244.09C506.136 245.49 515.316 246.642 524.185 247.575L522.816 264.738Z" fill="#E4897B"/>
<path d="M574.506 247.248C585.227 249.707 596.057 281.029 596.057 281.029L574.008 296.854C574.008 296.854 567.784 282.258 561.778 269.499C555.492 256.133 563.552 244.743 574.506 247.248Z" fill="#AD4358"/>
<path opacity="0.4" d="M574.506 247.248C585.227 249.707 596.057 281.029 596.057 281.029L574.008 296.854C574.008 296.854 567.784 282.258 561.778 269.499C555.492 256.133 563.552 244.743 574.506 247.248Z" fill="black"/>
<path d="M568.329 264.364L563.957 274.152C568.485 283.923 572.624 293.602 573.729 296.185C573.573 284.624 571.379 270.277 568.329 264.364Z" fill="#AD4358"/>
<path opacity="0.6" d="M568.329 264.364L563.957 274.152C568.485 283.923 572.624 293.602 573.729 296.185C573.573 284.624 571.379 270.277 568.329 264.364Z" fill="black"/>
<path d="M510.477 247.84C510.477 247.84 498.309 261.579 509.792 346.646H570.928C571.363 337.31 565.466 291.47 574.506 247.248C567.749 245.947 560.914 245.084 554.045 244.665C545.39 244.167 536.714 244.167 528.06 244.665C522.125 245.263 516.246 246.325 510.477 247.84Z" fill="#AD4358"/>
<path opacity="0.4" d="M510.477 247.84C510.477 247.84 498.309 261.579 509.792 346.646H570.928C571.363 337.31 565.466 291.47 574.506 247.248C567.749 245.947 560.914 245.084 554.045 244.665C545.39 244.167 536.714 244.167 528.06 244.665C522.125 245.263 516.246 246.325 510.477 247.84Z" fill="black"/>
<path d="M505.949 264.364C505.545 267.585 505.234 271.398 505.031 275.894C511.069 274.082 516.805 271.387 522.054 267.897L505.949 264.364Z" fill="#AD4358"/>
<path opacity="0.6" d="M505.949 264.364C505.545 267.585 505.234 271.398 505.031 275.894C511.069 274.082 516.805 271.387 522.054 267.897L505.949 264.364Z" fill="black"/>
<path d="M532.152 266.076C523.968 273.327 492.723 272.596 492.723 272.596L491.696 242.347C502.247 243.85 512.89 244.619 523.548 244.65C540.959 244.292 541.084 258.078 532.152 266.076Z" fill="#AD4358"/>
<path opacity="0.4" d="M532.152 266.076C523.968 273.327 492.723 272.596 492.723 272.596L491.696 242.347C502.247 243.85 512.89 244.619 523.548 244.65C540.959 244.292 541.084 258.078 532.152 266.076Z" fill="black"/>
<path d="M427.542 208.877L419.762 199.713L411.375 209.049C411.375 209.049 416.541 217.731 424.741 216.362L427.542 208.877Z" fill="#E4897B"/>
<path d="M408.621 189.023L405.603 200.989L411.313 208.986L419.7 199.713L408.621 189.023Z" fill="#E4897B"/>
<path d="M527.095 610.948L527.686 624.578H539.123L538.531 610.948H527.095Z" fill="#CE6F64"/>
<path d="M602.561 610.948H591.124L594.08 624.578H605.517L602.561 610.948Z" fill="#CE6F64"/>
<path d="M533.972 191.388C523.718 186.72 520.482 165.979 549.983 171.16C549.983 171.16 545.533 176.077 554.558 179.189C563.583 182.301 556.036 201.518 533.972 191.388Z" fill="#263238"/>
<path d="M556.255 206.948C553.314 217.84 552.162 224.469 545.363 229.028C535.186 235.874 522.536 228.016 522.132 216.393C521.774 205.952 526.644 189.785 538.392 187.576C540.985 187.067 543.665 187.232 546.176 188.053C548.688 188.875 550.947 190.326 552.738 192.269C554.529 194.211 555.793 196.581 556.409 199.15C557.024 201.72 556.971 204.405 556.255 206.948Z" fill="#E4897B"/>
<path d="M549.579 176.606C556.566 180.496 566.026 182.83 565.139 188.369C563.972 195.138 570.85 190.906 569.247 200.973C568.205 207.555 556.068 227.503 547.463 226.538C534.611 224.982 536.245 205.439 536.198 195.138C536.167 189.054 535.887 168.935 549.579 176.606Z" fill="#263238"/>
<path d="M534.657 185.335C531.545 186.066 527.422 204.007 539.481 205.657C553.345 207.539 534.657 185.335 534.657 185.335Z" fill="#263238"/>
<path d="M534.968 191.699C531.156 192.042 522.52 187.451 523.578 180.543C523.578 180.496 529.04 188.618 534.968 191.699Z" fill="#263238"/>
<path d="M540.633 207.088C539.462 209.654 537.477 211.76 534.984 213.079C531.701 214.79 529.849 212.301 530.596 209.002C531.265 206.046 533.786 201.58 537.163 201.222C540.539 200.864 541.986 203.976 540.633 207.088Z" fill="#E4897B"/>
<path d="M557.748 194.5C560.073 193.491 562.112 191.921 563.682 189.93C565.251 187.94 566.303 185.591 566.742 183.095C566.742 183.095 571.877 197.363 557.748 194.5Z" fill="#263238"/>
<path d="M570.725 194.267C569.642 193.539 568.396 193.092 567.098 192.964C565.8 192.837 564.491 193.033 563.287 193.535C563.287 193.535 568.08 187.327 570.725 194.267Z" fill="#263238"/>
<path d="M531.483 346.646C531.483 346.646 544.46 434 551.571 466.722C559.351 502.51 588.76 621.949 588.76 621.949H609.688C609.688 621.949 590.316 505.451 585.866 469.912C581.042 431.401 570.928 346.583 570.928 346.583L531.483 346.646Z" fill="#AD4358"/>
<path opacity="0.5" d="M531.483 346.646C531.483 346.646 544.46 434 551.571 466.722C559.351 502.51 588.76 621.949 588.76 621.949H609.688C609.688 621.949 590.316 505.451 585.866 469.912C581.042 431.401 570.928 346.583 570.928 346.583L531.483 346.646Z" fill="white"/>
<path d="M585.414 614.231C585.321 614.231 587.577 622.275 587.577 622.275H611.135L610.699 615.102L585.414 614.231Z" fill="#AD4358"/>
<path opacity="0.1" d="M585.414 614.231C585.321 614.231 587.577 622.275 587.577 622.275H611.135L610.699 615.102L585.414 614.231Z" fill="black"/>
<path d="M539.683 377.766C554.683 380.706 553.096 436.645 551.291 465.415C546.965 445.078 540.632 405.945 536.307 378.17C537.353 377.655 538.544 377.512 539.683 377.766Z" fill="#AD4358"/>
<path opacity="0.4" d="M539.683 377.766C554.683 380.706 553.096 436.645 551.291 465.415C546.965 445.078 540.632 405.945 536.307 378.17C537.353 377.655 538.544 377.512 539.683 377.766Z" fill="white"/>
<path d="M509.793 346.646C509.793 346.646 508.237 432.101 509.466 466.971C510.757 503.226 523.47 621.949 523.47 621.949H542.827C542.827 621.949 543.542 505.342 544.383 469.741C545.332 430.919 550.015 346.646 550.015 346.646H509.793Z" fill="#AD4358"/>
<path opacity="0.5" d="M509.793 346.646C509.793 346.646 508.237 432.101 509.466 466.971C510.757 503.226 523.47 621.949 523.47 621.949H542.827C542.827 621.949 543.542 505.342 544.383 469.741C545.332 430.919 550.015 346.646 550.015 346.646H509.793Z" fill="white"/>
<path d="M527.484 608.038C527.437 608.038 527.392 608.021 527.357 607.989C527.322 607.957 527.301 607.914 527.297 607.867C523.874 575.004 515.829 495.493 514.849 466.971C513.807 437.858 514.756 372.538 515.067 353.212C515.067 353.162 515.087 353.115 515.122 353.08C515.157 353.045 515.204 353.025 515.254 353.025C515.305 353.025 515.354 353.044 515.391 353.079C515.429 353.114 515.452 353.161 515.456 353.212C515.145 372.538 514.196 437.858 515.238 466.956C516.25 495.477 524.294 574.958 527.686 607.82C527.687 607.873 527.668 607.924 527.634 607.964C527.599 608.004 527.552 608.031 527.499 608.038H527.484Z" fill="#AD4358"/>
<path opacity="0.4" d="M527.484 608.038C527.437 608.038 527.392 608.021 527.357 607.989C527.322 607.957 527.301 607.914 527.297 607.867C523.874 575.004 515.829 495.493 514.849 466.971C513.807 437.858 514.756 372.538 515.067 353.212C515.067 353.162 515.087 353.115 515.122 353.08C515.157 353.045 515.204 353.025 515.254 353.025C515.305 353.025 515.354 353.044 515.391 353.079C515.429 353.114 515.452 353.161 515.456 353.212C515.145 372.538 514.196 437.858 515.238 466.956C516.25 495.477 524.294 574.958 527.686 607.82C527.687 607.873 527.668 607.924 527.634 607.964C527.599 608.004 527.552 608.031 527.499 608.038H527.484Z" fill="white"/>
<path d="M519.704 614.231C519.626 614.231 520.809 622.275 520.809 622.275H544.351L544.989 615.102L519.704 614.231Z" fill="#AD4358"/>
<path opacity="0.1" d="M519.704 614.231C519.626 614.231 520.809 622.275 520.809 622.275H544.351L544.989 615.102L519.704 614.231Z" fill="black"/>
</svg>
